# xmcd
#
# Track frame offsets: 
#        150
#        11342
#        23665
#        37302
#        47495
#        61262
#        71832
#        83522
#        91940
#        102302
#        111990
#        119735
#        127795
#        137930
#        146052
#        154500
#
# Disc length: 2170 seconds
#
# Revision: 2
# Processed by: cddbd v1.5.2PL0 Copyright (c) Steve Scherf et al.
# Submitted via: ExactAudioCopy v0.95b4
#
DISCID=d7087810
DTITLE=Franks Sinatra - It's Magic
DYEAR=1995
DGENRE=Jazz
TTITLE0=That's My Affair
TTITLE1=I Don't Believe In Rumours
TTITLE2=I've Had This Feeling Before
TTITLE3=The Trolley Song
TTITLE4=With A Song In My Heart
TTITLE5=The Surrey With The Fringe On Top
TTITLE6=It's Been A Long Time
TTITLE7=That's For Me
TTITLE8=Candy
TTITLE9=It's Magic
TTITLE10=Every Day I Love You
TTITLE11=Maybe It's Because
TTITLE12=Lullaby Of Broadway
TTITLE13=Somebody Loves Me
TTITLE14=Easter Parade
TTITLE15=Peg O'My Heart
EXTD=
EXTT0=
EXTT1=
EXTT2=
EXTT3=
EXTT4=
EXTT5=
EXTT6=
EXTT7=
EXTT8=
EXTT9=
EXTT10=
EXTT11=
EXTT12=
EXTT13=
EXTT14=
EXTT15=
PLAYORDER=
